<svg viewBox="0 0 41 41" fill="none" xmlns="http://www.w3.org/2000/svg">
<rect x="0.5" y="0.5" width="39.551" height="39.5566" rx="19.7755" stroke="#181A18"/>
<path d="M23.2806 15.4993V16.6702H17V15.4993H23.2806ZM19.0659 32V12.9318C19.0659 12.101 19.2288 11.392 19.5547 10.8048C19.8805 10.2175 20.3079 9.76989 20.8366 9.46193C21.3715 9.15398 21.9464 9 22.5613 9C22.8871 9 23.1638 9.03223 23.3913 9.09668C23.6249 9.15398 23.8278 9.22201 24 9.30079L23.668 10.461C23.5266 10.4037 23.3729 10.3536 23.2069 10.3106C23.047 10.2676 22.8564 10.2461 22.635 10.2461C21.9218 10.2461 21.3347 10.5004 20.8735 11.0089C20.4124 11.5174 20.1818 12.2264 20.1818 13.1359L20.1726 32H19.0659Z" fill="#181A18"/>
</svg>
