<svg viewBox="0 0 41 41" fill="none" xmlns="http://www.w3.org/2000/svg">
<rect x="1.22412" y="1.37842" width="38.5234" height="38.5289" rx="2.77955" stroke="#181A18"/>
<path d="M12.0295 29.8662V13.0006H13.3432V29.8662H12.0295ZM12.6918 10.014C12.4023 10.014 12.1489 9.91149 11.9318 9.70652C11.7219 9.50156 11.6169 9.25267 11.6169 8.95987C11.6169 8.66706 11.7219 8.41817 11.9318 8.21321C12.1417 8.00824 12.395 7.90576 12.6918 7.90576C12.9813 7.90576 13.231 8.00824 13.4409 8.21321C13.658 8.41817 13.7666 8.66706 13.7666 8.95987C13.7666 9.25267 13.6617 9.50156 13.4518 9.70652C13.2419 9.91149 12.9885 10.014 12.6918 10.014Z" fill="#181A18"/>
<path d="M20.2156 18.9299V29.8662H18.891V13.0006H20.183V15.6688H20.3133C20.7041 14.7977 21.3302 14.0986 22.1915 13.5716C23.0528 13.0445 24.077 12.781 25.264 12.781C26.3859 12.781 27.3703 13.0226 28.2171 13.5057C29.0712 13.9888 29.7371 14.6769 30.2148 15.57C30.6997 16.4557 30.9422 17.5135 30.9422 18.7433V29.8662H29.6176V18.7982C29.6176 17.3634 29.1942 16.2105 28.3474 15.3394C27.5078 14.461 26.3968 14.0218 25.0143 14.0218C24.0879 14.0218 23.2627 14.2267 22.539 14.6367C21.8152 15.0466 21.247 15.6212 20.8344 16.3605C20.4219 17.0926 20.2156 17.949 20.2156 18.9299Z" fill="#181A18"/>
</svg>
